<svg xmlns="http://www.w3.org/2000/svg" xmlns:xlink="http://www.w3.org/1999/xlink" width="48" height="48" version="1.1" viewBox="0 0 48 48"><title>icons/16px/bat-disabled</title><desc>Created with Sketch.</desc><g fill="none" fill-rule="evenodd" stroke="none" stroke-width="1"><g><g transform="translate(0.000000, 3.000000)"><path fill="#595C70" d="M0.0804990826,41.1974905 L14.1365725,33.0238484 L23.8268477,16.2127958 L23.8268477,0.00521684211 C23.5709945,0.00521684211 23.3155817,0.173216842 23.1218202,0.509658947 L11.643655,20.4225221 L0.165489908,40.3349432 C-0.0278311927,40.6709432 -0.0458862385,40.9759958 0.0804990826,41.1974905"/><path fill="#71748C" d="M23.8267596,0.00530526316 L23.8267596,16.2128842 L33.5165945,33.0239368 L47.5726679,41.1975789 C47.6990532,40.9760842 47.6809982,40.6705895 47.4872367,40.3350316 L36.0095119,20.4226105 L24.5317872,0.509747368 C24.3375853,0.173305263 24.0821725,0.00530526316 23.8267596,0.00530526316"/><path fill="#3B3E4F" d="M47.5726239,41.1974905 L33.5165505,33.0238484 L14.1364404,33.0238484 L0.0803669725,41.1974905 C0.207633028,41.4198695 0.48066055,41.5578063 0.867743119,41.5578063 L46.7852477,41.5578063 C47.1727706,41.5578063 47.4453578,41.4198695 47.5726239,41.1974905"/><polygon fill="#FFF" points="14.137 33.024 33.517 33.024 23.827 16.213"/></g></g></g></svg>