<svg xmlns="http://www.w3.org/2000/svg" viewBox="0 0 81 82"><defs><linearGradient id="a" x1="35.192%" x2="146.327%" y1="49.524%" y2="51.646%"><stop offset="0%" stop-color="#392DD1"/><stop offset="100%" stop-color="#FF4343"/></linearGradient><linearGradient id="b" x1="51.122%" x2="69.842%" y1="50.054%" y2="49.887%"><stop offset="0%" stop-color="#150D7E"/><stop offset="100%" stop-color="#360A4C"/></linearGradient><linearGradient id="c" x1="91.95%" x2="199.603%" y1="50%" y2="50%"><stop offset="0%" stop-color="#150D7E"/><stop offset="100%" stop-color="#360A4C"/></linearGradient></defs><g fill="none" fill-rule="evenodd" transform="translate(1)"><path stroke="#350A4B" stroke-width=".889" d="M.163 4.418A3.88 3.88 0 0 1 4.035.546h71.426a3.872 3.872 0 0 1 3.872 3.872v72.54a3.88 3.88 0 0 1-3.872 3.873H4.035a3.872 3.872 0 0 1-3.872-3.872V4.418z"/><rect width="18.667" height="16.912" x="7.111" y="16.022" fill="#150D7E" fill-rule="nonzero" opacity=".315" rx="1.852"/><rect width="18.667" height="39.165" x="7.111" y="34.714" fill="#150D7E" fill-rule="nonzero" opacity=".315" rx="1.852"/><rect width="42.667" height="24.033" x="29.333" y="49.846" fill="#150D7E" fill-rule="nonzero" opacity=".315" rx="1.852"/><rect width="42.667" height="2.67" x="29.333" y="16.912" fill="#150D7E" fill-rule="nonzero" opacity=".315" rx="1.333"/><rect width="34.667" height="2.67" x="29.333" y="27.593" fill="#150D7E" fill-rule="nonzero" opacity=".315" rx="1.333"/><rect width="24.889" height="2.67" x="29.333" y="22.253" fill="#150D7E" fill-rule="nonzero" opacity=".315" rx="1.333"/><rect width="24.889" height="2.67" x="29.333" y="32.934" fill="#150D7E" fill-rule="nonzero" opacity=".315" rx="1.333"/><rect width="42.667" height="2.67" x="29.333" y="38.275" fill="#150D7E" fill-rule="nonzero" opacity=".315" rx="1.333"/><rect width="30.222" height="2.67" x="29.333" y="43.615" fill="#150D7E" fill-rule="nonzero" opacity=".315" rx="1.333"/><g transform="translate(.163 .139)"><path fill="url(#a)" d="M0 3.862A3.863 3.863 0 0 1 3.872 0h71.426a3.87 3.87 0 0 1 3.872 3.862v3.862H0V3.862z"/><path fill="url(#b)" d="M0 7.724h79.17v2.596H0z" transform="matrix(1 0 0 -1 0 18.045)"/><path fill="url(#c)" d="M16.362 5.794c0-1.349 1.09-2.443 2.453-2.443h13.856a2.442 2.442 0 0 1 2.452 2.443v2.443h-18.76V5.794z"/><ellipse cx="4.466" cy="3.659" fill="#FFF" rx="1.218" ry="1.22"/><ellipse cx="8.526" cy="3.659" fill="#FFF" rx="1.218" ry="1.22"/><ellipse cx="12.586" cy="3.659" fill="#FFF" rx="1.218" ry="1.22"/></g></g></svg>